<svg id="svg" version="1.1" xmlns="http://www.w3.org/2000/svg" xmlns:xlink="http://www.w3.org/1999/xlink" width="400" height="159" viewBox="0, 0, 400,159"><g id="svgg"><path id="path0" d="M-0.000 7.155 L -0.000 14.311 0.375 14.419 C 0.581 14.479,1.237 14.754,1.833 15.032 C 2.429 15.310,3.179 15.652,3.500 15.793 C 3.821 15.934,4.196 16.113,4.333 16.192 C 4.471 16.271,4.696 16.380,4.833 16.434 C 5.167 16.565,5.842 16.865,7.250 17.506 C 7.892 17.798,8.679 18.152,9.000 18.293 C 9.321 18.434,9.696 18.613,9.833 18.692 C 9.971 18.771,10.196 18.880,10.333 18.934 C 10.635 19.052,11.205 19.304,12.750 20.000 C 13.392 20.289,14.179 20.641,14.500 20.781 C 14.821 20.922,15.196 21.104,15.333 21.186 C 15.471 21.268,15.696 21.380,15.833 21.434 C 16.135 21.552,16.705 21.804,18.250 22.500 C 18.892 22.789,19.679 23.141,20.000 23.281 C 20.321 23.422,20.696 23.604,20.833 23.686 C 20.971 23.768,21.196 23.877,21.333 23.928 C 21.643 24.043,22.247 24.310,23.750 24.994 C 24.392 25.286,25.179 25.641,25.500 25.781 C 25.821 25.922,26.196 26.104,26.333 26.186 C 26.471 26.268,26.696 26.377,26.833 26.428 C 26.971 26.479,27.308 26.622,27.583 26.745 C 27.858 26.867,28.421 27.118,28.833 27.302 C 29.246 27.486,30.003 27.831,30.516 28.068 C 31.029 28.306,31.526 28.500,31.621 28.500 C 31.715 28.500,31.886 28.613,32.000 28.750 C 32.114 28.887,32.377 29.000,32.583 29.000 C 32.790 29.000,33.053 29.113,33.167 29.250 C 33.281 29.388,33.451 29.500,33.546 29.500 C 33.640 29.500,34.194 29.725,34.776 30.000 C 35.358 30.275,35.937 30.500,36.063 30.500 C 36.189 30.500,36.386 30.612,36.500 30.750 C 36.614 30.887,36.805 31.000,36.924 31.000 C 37.042 31.000,37.352 31.108,37.611 31.239 C 38.075 31.475,39.854 32.290,41.000 32.793 C 41.321 32.934,41.696 33.113,41.833 33.192 C 41.971 33.271,42.196 33.380,42.333 33.434 C 42.667 33.565,43.342 33.865,44.750 34.506 C 45.392 34.798,46.179 35.152,46.500 35.293 C 46.821 35.434,47.196 35.613,47.333 35.692 C 47.471 35.771,47.696 35.880,47.833 35.934 C 48.135 36.052,48.705 36.304,50.250 37.000 C 50.892 37.289,51.679 37.641,52.000 37.781 C 52.321 37.922,52.696 38.104,52.833 38.186 C 52.971 38.268,53.196 38.380,53.333 38.434 C 53.635 38.552,54.205 38.804,55.750 39.500 C 56.392 39.789,57.179 40.141,57.500 40.281 C 57.821 40.422,58.196 40.604,58.333 40.686 C 58.471 40.768,58.696 40.877,58.833 40.928 C 59.143 41.043,59.747 41.310,61.250 41.994 C 61.892 42.286,62.679 42.641,63.000 42.781 C 63.321 42.922,63.696 43.104,63.833 43.186 C 63.971 43.268,64.196 43.377,64.333 43.428 C 64.471 43.479,64.808 43.622,65.083 43.746 C 65.358 43.870,66.033 44.172,66.583 44.417 C 67.133 44.663,67.888 45.007,68.261 45.182 C 68.634 45.357,69.018 45.500,69.116 45.500 C 69.213 45.500,69.386 45.612,69.500 45.750 C 69.614 45.887,69.877 46.000,70.083 46.000 C 70.290 46.000,70.553 46.112,70.667 46.250 C 70.781 46.387,70.951 46.500,71.046 46.500 C 71.141 46.500,71.638 46.694,72.151 46.932 C 73.023 47.336,73.760 47.668,75.167 48.290 C 75.487 48.433,75.862 48.613,76.000 48.692 C 76.137 48.771,76.362 48.880,76.500 48.934 C 76.745 49.030,77.074 49.172,78.417 49.758 C 78.783 49.918,79.196 50.113,79.333 50.192 C 79.471 50.271,79.696 50.380,79.833 50.434 C 80.167 50.565,80.842 50.865,82.250 51.506 C 82.892 51.798,83.679 52.152,84.000 52.293 C 84.321 52.434,84.696 52.613,84.833 52.692 C 84.971 52.771,85.196 52.880,85.333 52.934 C 85.667 53.065,86.342 53.365,87.750 54.006 C 88.392 54.298,89.179 54.652,89.500 54.793 C 89.821 54.934,90.196 55.113,90.333 55.192 C 90.471 55.271,90.696 55.380,90.833 55.434 C 91.135 55.552,91.705 55.804,93.250 56.500 C 93.892 56.789,94.679 57.141,95.000 57.281 C 95.321 57.422,95.696 57.604,95.833 57.686 C 95.971 57.768,96.196 57.880,96.333 57.934 C 96.635 58.052,97.205 58.304,98.750 59.000 C 99.392 59.289,100.179 59.641,100.500 59.781 C 100.821 59.922,101.196 60.104,101.333 60.186 C 101.471 60.268,101.696 60.377,101.833 60.428 C 102.143 60.543,102.747 60.810,104.250 61.494 C 104.892 61.786,105.679 62.141,106.000 62.281 C 106.321 62.422,106.696 62.604,106.833 62.686 C 106.971 62.768,107.196 62.877,107.333 62.928 C 107.471 62.979,107.808 63.122,108.083 63.246 C 108.663 63.507,110.286 64.231,111.250 64.659 C 111.617 64.822,112.329 65.123,112.833 65.328 C 113.337 65.533,113.821 65.768,113.908 65.851 C 113.995 65.933,114.230 66.000,114.430 66.000 C 114.629 66.000,114.886 66.112,115.000 66.250 C 115.114 66.387,115.271 66.500,115.349 66.500 C 115.547 66.500,118.160 68.056,119.209 68.799 C 121.081 70.124,125.500 75.005,125.500 75.748 C 125.500 75.787,125.709 76.178,125.965 76.618 C 126.519 77.571,127.384 79.591,127.733 80.750 C 128.581 83.562,128.583 83.584,128.583 87.833 C 128.583 91.984,128.524 92.498,127.809 94.583 C 127.715 94.858,127.574 95.308,127.497 95.583 C 127.242 96.489,126.892 97.341,126.695 97.539 C 126.588 97.646,126.500 97.819,126.500 97.924 C 126.500 99.803,120.330 106.613,117.320 108.056 C 117.190 108.118,116.851 108.311,116.567 108.484 C 116.284 108.656,115.309 109.194,114.401 109.677 C 111.942 110.988,111.806 111.063,111.083 111.520 C 110.717 111.751,110.304 111.993,110.167 112.056 C 110.029 112.119,109.692 112.318,109.417 112.499 C 109.142 112.680,108.767 112.905,108.583 113.000 C 108.400 113.094,107.987 113.330,107.667 113.525 C 107.346 113.721,106.783 114.043,106.417 114.241 C 106.050 114.440,105.450 114.791,105.083 115.022 C 104.717 115.252,104.304 115.493,104.167 115.556 C 104.029 115.619,103.692 115.818,103.417 115.999 C 103.142 116.180,102.767 116.405,102.583 116.500 C 102.400 116.594,101.987 116.830,101.667 117.025 C 101.346 117.221,100.783 117.543,100.417 117.741 C 100.050 117.940,99.450 118.291,99.083 118.522 C 98.717 118.752,98.304 118.993,98.167 119.056 C 98.029 119.119,97.692 119.318,97.417 119.499 C 97.142 119.680,96.767 119.905,96.583 120.000 C 96.400 120.094,95.987 120.330,95.667 120.525 C 95.346 120.721,94.783 121.043,94.417 121.241 C 94.050 121.440,93.450 121.791,93.083 122.022 C 92.717 122.252,92.304 122.493,92.167 122.556 C 92.029 122.619,91.692 122.818,91.417 122.999 C 91.142 123.180,90.767 123.405,90.583 123.500 C 90.400 123.594,89.987 123.830,89.667 124.025 C 89.346 124.221,88.783 124.543,88.417 124.741 C 87.775 125.089,86.760 125.690,86.077 126.125 C 85.897 126.240,85.600 126.410,85.417 126.503 C 85.233 126.596,84.858 126.815,84.583 126.991 C 84.308 127.167,83.783 127.473,83.417 127.671 C 83.050 127.869,82.581 128.187,82.375 128.378 L 82.000 128.725 82.000 143.862 L 82.000 159.000 199.500 159.000 L 317.000 159.000 316.997 143.792 C 316.996 135.427,316.940 128.507,316.872 128.413 C 316.727 128.211,316.008 127.739,315.083 127.240 C 314.717 127.042,314.154 126.721,313.833 126.525 C 313.512 126.330,313.100 126.094,312.917 126.000 C 312.733 125.905,312.358 125.680,312.083 125.499 C 311.808 125.318,311.471 125.119,311.333 125.056 C 311.196 124.993,310.783 124.752,310.417 124.522 C 310.050 124.291,309.450 123.940,309.083 123.741 C 308.717 123.543,308.154 123.221,307.833 123.025 C 307.512 122.830,307.100 122.594,306.917 122.500 C 306.733 122.405,306.358 122.180,306.083 121.999 C 305.808 121.818,305.471 121.619,305.333 121.556 C 305.196 121.493,304.783 121.252,304.417 121.022 C 304.050 120.791,303.450 120.440,303.083 120.241 C 302.717 120.043,302.154 119.721,301.833 119.525 C 301.512 119.330,301.100 119.094,300.917 119.000 C 300.733 118.905,300.358 118.681,300.083 118.500 C 299.808 118.319,299.433 118.103,299.250 118.019 C 299.067 117.935,298.632 117.672,298.284 117.433 C 297.936 117.195,297.584 117.000,297.501 117.000 C 297.418 117.000,297.028 116.794,296.633 116.542 C 295.476 115.802,295.268 115.675,294.917 115.497 C 294.733 115.404,294.358 115.181,294.083 115.000 C 293.808 114.819,293.433 114.603,293.250 114.519 C 293.067 114.435,292.632 114.172,292.284 113.933 C 291.936 113.695,291.584 113.500,291.501 113.500 C 291.418 113.500,291.028 113.294,290.633 113.042 C 289.476 112.302,289.268 112.175,288.917 111.997 C 288.733 111.904,288.358 111.681,288.083 111.500 C 287.808 111.319,287.433 111.103,287.250 111.019 C 287.067 110.935,286.632 110.672,286.284 110.433 C 285.936 110.195,285.567 110.000,285.464 110.000 C 285.361 110.000,285.158 109.896,285.013 109.770 C 284.868 109.643,284.225 109.255,283.583 108.907 C 282.942 108.559,282.192 108.139,281.917 107.972 C 281.642 107.806,281.304 107.618,281.167 107.555 C 277.891 106.054,272.853 99.950,271.355 95.667 C 270.174 92.292,270.134 92.053,270.048 87.859 C 269.932 82.215,270.586 79.644,273.319 75.000 C 275.030 72.092,280.182 67.000,281.413 67.000 C 281.452 67.000,281.817 66.775,282.224 66.500 C 282.632 66.225,283.028 66.000,283.105 66.000 C 283.235 66.000,284.808 65.288,285.889 64.739 C 286.148 64.608,286.486 64.498,286.639 64.495 C 286.791 64.492,287.062 64.379,287.240 64.245 C 287.418 64.110,287.728 64.000,287.928 64.000 C 288.129 64.000,288.386 63.887,288.500 63.750 C 288.614 63.612,288.883 63.500,289.098 63.500 C 289.313 63.500,289.735 63.397,290.036 63.270 C 290.337 63.144,291.033 62.912,291.583 62.754 C 292.133 62.596,292.830 62.362,293.131 62.234 C 293.432 62.105,293.823 62.000,294.000 62.000 C 294.177 62.000,294.568 61.897,294.869 61.770 C 295.170 61.644,295.867 61.411,296.417 61.253 C 296.967 61.094,297.604 60.887,297.833 60.792 C 298.063 60.698,298.512 60.563,298.833 60.493 C 299.154 60.423,299.679 60.273,300.000 60.159 C 300.321 60.046,300.846 59.862,301.167 59.750 C 301.487 59.638,302.012 59.453,302.333 59.338 C 302.654 59.223,303.142 59.090,303.417 59.043 C 303.692 58.996,303.995 58.896,304.090 58.821 C 304.185 58.746,304.560 58.612,304.923 58.523 C 305.660 58.344,306.476 58.071,307.297 57.728 C 307.598 57.603,308.011 57.498,308.214 57.495 C 308.417 57.492,308.729 57.379,308.907 57.245 C 309.085 57.110,309.422 56.998,309.657 56.995 C 309.891 56.992,310.229 56.879,310.407 56.745 C 310.585 56.610,310.922 56.498,311.157 56.495 C 311.391 56.492,311.729 56.379,311.907 56.245 C 312.085 56.110,312.427 56.000,312.667 56.000 C 312.907 56.000,313.249 55.890,313.426 55.755 C 313.604 55.621,313.938 55.506,314.167 55.500 C 314.396 55.494,314.729 55.379,314.907 55.245 C 315.085 55.110,315.422 54.998,315.657 54.995 C 315.891 54.992,316.229 54.879,316.407 54.745 C 316.585 54.610,316.897 54.500,317.102 54.500 C 317.306 54.500,317.685 54.396,317.945 54.268 C 318.455 54.018,319.288 53.719,320.083 53.500 C 320.358 53.424,320.996 53.199,321.500 53.000 C 322.004 52.801,322.642 52.576,322.917 52.500 C 323.192 52.424,323.829 52.202,324.333 52.006 C 326.103 51.320,326.588 51.143,327.083 51.003 C 327.358 50.926,327.996 50.702,328.500 50.506 C 329.955 49.942,330.718 49.658,331.178 49.511 C 331.414 49.436,331.751 49.298,331.928 49.204 C 332.105 49.111,332.550 48.922,332.917 48.786 C 333.283 48.649,333.921 48.408,334.333 48.250 C 334.746 48.092,335.365 47.858,335.708 47.731 C 337.197 47.180,337.780 46.956,338.250 46.754 C 338.525 46.636,339.350 46.299,340.083 46.006 C 340.817 45.712,341.642 45.375,341.917 45.256 C 342.192 45.136,342.979 44.813,343.667 44.536 C 344.354 44.260,345.329 43.868,345.833 43.665 C 346.337 43.462,347.162 43.113,347.667 42.889 C 348.171 42.665,348.828 42.376,349.127 42.246 C 350.688 41.567,351.418 41.243,353.042 40.509 C 353.661 40.229,354.203 40.000,354.247 40.000 C 354.290 40.000,354.871 39.746,355.538 39.436 C 356.799 38.849,358.209 38.197,360.125 37.316 C 363.115 35.939,370.232 32.436,372.417 31.264 C 372.967 30.969,374.204 30.311,375.167 29.801 C 376.129 29.291,377.179 28.716,377.500 28.522 C 377.821 28.328,378.196 28.117,378.333 28.054 C 378.471 27.990,379.108 27.630,379.750 27.252 C 380.392 26.875,381.029 26.513,381.167 26.448 C 381.304 26.383,381.642 26.181,381.917 26.000 C 382.192 25.819,382.529 25.619,382.667 25.557 C 382.916 25.444,384.604 24.379,385.967 23.475 C 386.361 23.214,386.716 23.000,386.757 23.000 C 386.797 23.000,387.323 22.662,387.926 22.250 C 388.528 21.837,389.056 21.500,389.099 21.500 C 389.598 21.500,396.150 16.180,398.375 13.968 L 400.000 12.352 400.000 9.676 L 400.000 7.000 335.042 6.959 L 270.083 6.917 270.038 3.458 L 269.993 0.000 134.997 0.000 L 0.000 0.000 -0.000 7.155 " stroke="none" fill="#040404" fill-rule="evenodd"></path></g></svg>