<svg id="svg" version="1.1" xmlns="http://www.w3.org/2000/svg" xmlns:xlink="http://www.w3.org/1999/xlink" width="400" height="152.0912547528517" viewBox="0, 0, 400,152.0912547528517"><g id="svgg"><path id="path0" d="M30.570 1.283 C 28.277 2.543,27.146 4.792,17.453 27.362 L 6.844 52.063 6.844 60.252 L 6.844 68.441 3.422 68.441 L 0.000 68.441 0.000 84.030 L 0.000 99.620 3.422 99.620 L 6.844 99.620 6.844 125.856 L 6.844 152.091 36.502 152.091 L 66.160 152.091 66.160 126.236 L 66.160 100.380 81.939 100.388 C 90.618 100.393,164.278 101.244,245.627 102.280 C 326.977 103.317,394.990 104.169,396.768 104.173 L 400.000 104.183 400.000 84.030 L 400.000 63.878 397.148 63.886 C 395.580 63.891,327.738 64.742,246.388 65.778 C 165.038 66.815,91.207 67.667,82.319 67.672 L 66.160 67.681 66.160 59.264 L 66.160 50.848 55.825 26.705 C 48.903 10.532,44.962 2.232,43.889 1.562 C 41.158 -0.144,33.461 -0.305,30.570 1.283 " stroke="none" fill="#000000" fill-rule="evenodd"></path></g></svg>