<svg id="svg" version="1.1" xmlns="http://www.w3.org/2000/svg" xmlns:xlink="http://www.w3.org/1999/xlink" width="400" height="300" viewBox="0, 0, 400,300"><g id="svgg"><path id="path0" d="M193.248 45.200 C 192.671 45.271,190.302 45.520,187.985 45.754 C 180.187 46.540,169.403 49.159,162.606 51.917 C 134.572 63.294,113.959 83.297,103.240 109.527 C 102.532 111.260,101.841 112.948,101.704 113.278 C 100.051 117.273,97.436 127.082,96.503 132.783 C 95.408 139.478,95.274 141.359,95.274 150.038 C 95.274 158.958,95.401 160.627,96.646 168.042 C 98.775 180.725,103.954 194.398,110.666 205.058 C 111.690 206.684,112.528 208.070,112.528 208.138 C 112.528 208.206,113.231 209.238,114.090 210.432 C 124.453 224.831,137.545 236.066,153.038 243.855 C 156.318 245.504,160.805 247.562,161.121 247.562 C 161.255 247.562,162.145 247.906,163.097 248.328 C 165.314 249.308,165.445 249.236,166.063 246.692 C 168.234 237.762,174.390 229.458,182.146 225.001 C 185.060 223.326,185.673 223.033,187.847 222.279 C 192.130 220.793,196.449 219.974,200.000 219.974 C 204.739 219.974,212.038 221.750,215.754 223.807 C 216.497 224.219,217.554 224.807,218.104 225.114 C 225.632 229.327,232.616 239.117,234.230 247.722 C 234.500 249.159,234.846 249.237,236.903 248.328 C 237.855 247.906,238.745 247.562,238.879 247.562 C 239.195 247.562,243.682 245.504,246.962 243.855 C 278.877 227.810,299.690 198.016,304.324 161.740 C 304.861 157.531,304.867 142.205,304.332 138.335 C 303.051 129.058,300.578 118.796,298.296 113.278 C 298.159 112.948,297.468 111.260,296.760 109.527 C 294.586 104.206,291.376 98.103,287.693 92.287 C 277.588 76.331,260.905 62.370,241.410 53.553 C 228.312 47.629,205.576 43.686,193.248 45.200 M203.954 115.233 C 207.577 115.704,213.093 117.307,215.304 118.532 C 215.799 118.806,216.854 119.393,217.649 119.836 C 241.423 133.074,239.991 170.759,215.304 181.526 C 214.974 181.670,214.044 182.074,213.237 182.424 C 194.965 190.347,173.034 180.097,166.738 160.690 C 161.765 145.364,168.379 127.887,182.146 119.974 C 185.060 118.299,185.673 118.006,187.847 117.252 C 193.892 115.156,198.706 114.552,203.954 115.233 " stroke="none" fill="#044cac" fill-rule="evenodd"></path><path id="path1" d="M195.049 115.390 C 191.455 115.947,186.754 117.391,184.546 118.616 C 179.963 121.158,178.158 122.480,175.209 125.455 C 158.232 142.586,163.287 171.208,185.146 181.714 C 193.724 185.837,204.725 186.115,213.237 182.424 C 214.044 182.074,214.974 181.670,215.304 181.526 C 239.991 170.759,241.423 133.074,217.649 119.836 C 216.854 119.393,215.799 118.806,215.304 118.532 C 210.260 115.736,201.540 114.384,195.049 115.390 M199.478 237.872 C 199.852 237.943,200.392 237.941,200.679 237.866 C 200.966 237.790,200.660 237.732,200.000 237.735 C 199.340 237.738,199.105 237.800,199.478 237.872 M186.946 243.436 C 186.504 244.039,186.432 244.249,186.756 243.986 C 187.248 243.586,187.992 242.461,187.764 242.461 C 187.707 242.461,187.338 242.899,186.946 243.436 M182.832 253.113 C 182.834 253.938,182.892 254.240,182.961 253.784 C 183.030 253.328,183.028 252.653,182.957 252.284 C 182.886 251.915,182.829 252.288,182.832 253.113 M217.040 253.113 C 217.042 253.938,217.101 254.240,217.170 253.784 C 217.239 253.328,217.237 252.653,217.165 252.284 C 217.094 251.915,217.038 252.288,217.040 253.113 M182.832 257.014 C 182.834 257.839,182.892 258.141,182.961 257.685 C 183.030 257.229,183.028 256.554,182.957 256.185 C 182.886 255.816,182.829 256.189,182.832 257.014 M217.036 256.864 C 217.036 257.607,217.094 257.911,217.166 257.539 C 217.238 257.168,217.238 256.560,217.166 256.189 C 217.094 255.818,217.036 256.122,217.036 256.864 M186.947 266.561 C 186.947 266.612,187.386 267.051,187.922 267.536 L 188.897 268.417 188.016 267.442 C 187.194 266.533,186.947 266.329,186.947 266.561 M211.984 267.442 L 211.103 268.417 212.078 267.536 C 212.614 267.051,213.053 266.612,213.053 266.561 C 213.053 266.329,212.806 266.533,211.984 267.442 M195.649 271.854 C 195.896 272.022,196.358 272.161,196.674 272.163 C 197.442 272.170,197.202 271.998,196.099 271.751 C 195.442 271.604,195.320 271.632,195.649 271.854 M203.451 271.868 C 202.833 272.066,202.806 272.113,203.301 272.134 C 203.631 272.147,204.104 272.028,204.351 271.868 C 204.877 271.528,204.512 271.528,203.451 271.868 M199.478 272.380 C 199.852 272.452,200.392 272.449,200.679 272.374 C 200.966 272.299,200.660 272.240,200.000 272.244 C 199.340 272.247,199.105 272.308,199.478 272.380 " stroke="none" fill="#fbd34c" fill-rule="evenodd"></path><path id="path2" d="M195.583 238.425 C 182.860 241.510,178.528 257.826,187.947 267.181 C 195.884 275.065,210.019 273.108,215.042 263.431 C 222.100 249.830,210.426 234.827,195.583 238.425 " stroke="none" fill="#58b51a" fill-rule="evenodd"></path></g></svg>