<svg id="svg" version="1.1" xmlns="http://www.w3.org/2000/svg" xmlns:xlink="http://www.w3.org/1999/xlink" width="400"
     height="400" viewBox="0, 0, 400,400">
    <g id="svgg">
        <path id="path0"
              d="M74.756 0.177 C 74.654 0.280,73.902 0.409,73.085 0.464 C 72.268 0.519,71.600 0.707,71.600 0.882 C 71.600 1.057,71.240 1.200,70.800 1.200 C 70.360 1.200,70.000 1.380,70.000 1.600 C 70.000 1.820,69.460 2.000,68.800 2.000 C 68.140 2.000,67.600 2.180,67.600 2.400 C 67.600 2.620,67.240 2.800,66.800 2.800 C 66.360 2.800,66.000 2.980,66.000 3.200 C 66.000 3.420,65.680 3.600,65.288 3.600 C 64.897 3.600,64.317 3.960,64.000 4.400 C 63.683 4.840,63.143 5.200,62.800 5.200 C 62.457 5.200,61.917 5.560,61.600 6.000 C 61.283 6.440,60.793 6.800,60.512 6.800 C 60.230 6.800,60.000 6.980,60.000 7.200 C 60.000 7.420,59.827 7.600,59.616 7.600 C 59.093 7.600,55.200 11.465,55.200 11.984 C 55.200 12.213,55.020 12.400,54.800 12.400 C 54.580 12.400,54.400 12.630,54.400 12.912 C 54.400 13.193,54.040 13.683,53.600 14.000 C 53.160 14.317,52.800 14.857,52.800 15.200 C 52.800 15.543,52.440 16.083,52.000 16.400 C 51.560 16.717,51.200 17.297,51.200 17.688 C 51.200 18.080,51.020 18.400,50.800 18.400 C 50.580 18.400,50.400 18.760,50.400 19.200 C 50.400 19.640,50.220 20.000,50.000 20.000 C 49.780 20.000,49.600 20.540,49.600 21.200 C 49.600 21.860,49.420 22.400,49.200 22.400 C 48.980 22.400,48.800 22.760,48.800 23.200 C 48.800 23.640,48.657 24.000,48.482 24.000 C 48.307 24.000,48.118 24.675,48.063 25.499 C 48.007 26.324,47.790 27.170,47.581 27.379 C 47.044 27.916,47.063 372.800,47.600 372.800 C 47.820 372.800,48.000 373.520,48.000 374.400 C 48.000 375.280,48.180 376.000,48.400 376.000 C 48.620 376.000,48.800 376.360,48.800 376.800 C 48.800 377.240,48.980 377.600,49.200 377.600 C 49.420 377.600,49.600 378.140,49.600 378.800 C 49.600 379.460,49.780 380.000,50.000 380.000 C 50.220 380.000,50.400 380.360,50.400 380.800 C 50.400 381.240,50.580 381.600,50.800 381.600 C 51.020 381.600,51.200 381.920,51.200 382.312 C 51.200 382.703,51.560 383.283,52.000 383.600 C 52.440 383.917,52.800 384.457,52.800 384.800 C 52.800 385.143,53.160 385.683,53.600 386.000 C 54.040 386.317,54.400 386.788,54.400 387.046 C 54.400 387.627,59.026 392.400,59.590 392.400 C 59.816 392.400,60.000 392.580,60.000 392.800 C 60.000 393.020,60.230 393.200,60.512 393.200 C 60.793 393.200,61.283 393.560,61.600 394.000 C 61.917 394.440,62.457 394.800,62.800 394.800 C 63.143 394.800,63.683 395.160,64.000 395.600 C 64.317 396.040,64.897 396.400,65.288 396.400 C 65.680 396.400,66.000 396.580,66.000 396.800 C 66.000 397.020,66.360 397.200,66.800 397.200 C 67.240 397.200,67.600 397.380,67.600 397.600 C 67.600 397.820,68.140 398.000,68.800 398.000 C 69.460 398.000,70.000 398.180,70.000 398.400 C 70.000 398.620,70.525 398.800,71.167 398.800 C 71.808 398.800,72.408 399.025,72.500 399.300 C 72.745 400.035,327.325 400.035,328.060 399.300 C 328.335 399.025,328.884 398.800,329.280 398.800 C 329.676 398.800,330.000 398.620,330.000 398.400 C 330.000 398.180,330.540 398.000,331.200 398.000 C 331.860 398.000,332.400 397.820,332.400 397.600 C 332.400 397.380,332.760 397.200,333.200 397.200 C 333.640 397.200,334.000 397.020,334.000 396.800 C 334.000 396.580,334.320 396.400,334.712 396.400 C 335.103 396.400,335.683 396.040,336.000 395.600 C 336.317 395.160,336.857 394.800,337.200 394.800 C 337.543 394.800,338.083 394.440,338.400 394.000 C 338.717 393.560,339.207 393.200,339.488 393.200 C 339.770 393.200,340.000 393.020,340.000 392.800 C 340.000 392.580,340.184 392.400,340.410 392.400 C 340.974 392.400,345.600 387.627,345.600 387.046 C 345.600 386.788,345.960 386.317,346.400 386.000 C 346.840 385.683,347.200 385.143,347.200 384.800 C 347.200 384.457,347.560 383.917,348.000 383.600 C 348.440 383.283,348.800 382.703,348.800 382.312 C 348.800 381.920,348.980 381.600,349.200 381.600 C 349.420 381.600,349.600 381.240,349.600 380.800 C 349.600 380.360,349.780 380.000,350.000 380.000 C 350.220 380.000,350.400 379.460,350.400 378.800 C 350.400 378.140,350.580 377.600,350.800 377.600 C 351.020 377.600,351.200 377.251,351.200 376.824 C 351.200 376.397,351.380 375.936,351.600 375.800 C 351.820 375.664,352.000 374.933,352.000 374.176 C 352.000 373.419,352.180 372.800,352.400 372.800 C 352.955 372.800,352.955 100.943,352.400 100.600 C 352.180 100.464,352.000 100.043,352.000 99.665 C 352.000 99.286,351.640 98.717,351.200 98.400 C 350.760 98.083,350.400 97.674,350.400 97.492 C 350.400 97.228,340.765 87.289,334.462 81.050 C 332.701 79.307,320.317 66.916,318.551 65.130 C 317.698 64.267,314.030 60.602,310.400 56.984 C 306.770 53.366,302.856 49.460,301.702 48.303 C 300.548 47.146,296.634 43.230,293.005 39.600 C 289.376 35.970,286.090 32.683,285.703 32.296 C 285.316 31.909,281.622 28.219,277.493 24.096 C 273.365 19.973,269.267 15.880,268.388 15.000 C 265.385 11.994,255.684 2.602,254.341 1.400 L 253.000 0.200 163.971 0.096 C 115.005 0.038,74.858 0.075,74.756 0.177 M234.800 57.000 C 234.800 78.733,234.937 90.000,235.200 90.000 C 235.420 90.000,235.600 90.720,235.600 91.600 C 235.600 92.480,235.780 93.200,236.000 93.200 C 236.220 93.200,236.400 93.560,236.400 94.000 C 236.400 94.440,236.580 94.800,236.800 94.800 C 237.020 94.800,237.200 95.340,237.200 96.000 C 237.200 96.660,237.380 97.200,237.600 97.200 C 237.820 97.200,238.000 97.560,238.000 98.000 C 238.000 98.440,238.180 98.800,238.400 98.800 C 238.620 98.800,238.800 99.120,238.800 99.512 C 238.800 99.903,239.160 100.483,239.600 100.800 C 240.040 101.117,240.400 101.697,240.400 102.088 C 240.400 102.480,240.559 102.800,240.754 102.800 C 240.949 102.800,241.429 103.475,241.820 104.300 C 242.211 105.125,243.020 106.250,243.617 106.800 C 245.803 108.815,246.816 109.600,247.227 109.600 C 247.458 109.600,247.536 109.780,247.400 110.000 C 247.264 110.220,247.484 110.400,247.888 110.400 C 248.293 110.400,248.883 110.760,249.200 111.200 C 249.517 111.640,250.057 112.000,250.400 112.000 C 250.743 112.000,251.283 112.360,251.600 112.800 C 251.917 113.240,252.497 113.600,252.888 113.600 C 253.280 113.600,253.600 113.780,253.600 114.000 C 253.600 114.220,253.960 114.400,254.400 114.400 C 254.840 114.400,255.200 114.580,255.200 114.800 C 255.200 115.020,255.740 115.200,256.400 115.200 C 257.060 115.200,257.600 115.380,257.600 115.600 C 257.600 115.820,258.050 116.000,258.600 116.000 C 259.150 116.000,259.600 116.160,259.600 116.356 C 259.600 117.187,264.254 117.331,295.500 117.467 L 328.400 117.609 328.400 240.981 C 328.400 322.797,328.265 364.436,328.000 364.600 C 327.780 364.736,327.600 365.647,327.600 366.624 C 327.600 367.601,327.420 368.400,327.200 368.400 C 326.980 368.400,326.800 368.745,326.800 369.167 C 326.800 369.588,326.665 369.993,326.500 370.067 C 326.335 370.140,325.857 370.875,325.437 371.700 C 325.017 372.525,324.466 373.200,324.212 373.200 C 323.959 373.200,323.363 373.562,322.888 374.004 C 320.986 375.776,322.894 375.748,200.000 375.748 C 76.875 375.748,78.739 375.775,77.198 373.998 C 76.818 373.559,76.241 373.200,75.916 373.200 C 75.592 373.200,74.983 372.525,74.563 371.700 C 74.143 370.875,73.665 370.140,73.500 370.067 C 73.335 369.993,73.200 369.588,73.200 369.167 C 73.200 368.745,73.020 368.400,72.800 368.400 C 72.580 368.400,72.400 367.590,72.400 366.600 C 72.400 365.610,72.220 364.800,72.000 364.800 C 71.734 364.800,71.600 309.600,71.600 200.000 C 71.600 90.400,71.734 35.200,72.000 35.200 C 72.220 35.200,72.400 34.390,72.400 33.400 C 72.400 32.410,72.580 31.600,72.800 31.600 C 73.020 31.600,73.200 31.255,73.200 30.833 C 73.200 30.412,73.335 30.007,73.500 29.933 C 73.665 29.860,74.143 29.125,74.563 28.300 C 74.983 27.475,75.534 26.800,75.788 26.800 C 76.041 26.800,76.650 26.426,77.141 25.969 C 77.722 25.428,78.797 25.060,80.228 24.912 C 81.435 24.788,82.519 24.531,82.635 24.343 C 82.752 24.154,117.037 24.000,158.824 24.000 L 234.800 24.000 234.800 57.000 M262.913 46.100 C 262.825 46.265,263.044 46.400,263.400 46.400 C 263.756 46.400,263.974 46.535,263.884 46.700 C 263.669 47.096,269.458 52.809,269.764 52.503 C 269.894 52.373,270.000 52.577,270.000 52.957 C 270.000 53.337,270.135 53.578,270.300 53.493 C 270.587 53.345,280.403 63.032,280.217 63.280 C 280.167 63.346,281.628 64.887,283.463 66.705 C 285.299 68.523,286.800 69.930,286.800 69.832 C 286.800 69.733,289.019 71.846,291.731 74.526 C 294.443 77.207,296.592 79.535,296.507 79.700 C 296.422 79.865,296.644 80.000,297.000 80.000 C 297.356 80.000,297.574 80.135,297.484 80.300 C 297.395 80.465,298.824 82.087,300.661 83.905 C 302.497 85.723,304.000 87.118,304.000 87.004 C 304.000 86.890,305.365 88.192,307.032 89.898 L 310.065 93.000 290.413 93.104 C 277.752 93.171,270.493 93.064,270.007 92.804 C 269.592 92.582,268.711 92.400,268.050 92.400 C 267.388 92.400,266.741 92.228,266.611 92.017 C 266.481 91.807,266.110 91.736,265.787 91.860 C 265.464 91.984,265.200 91.886,265.200 91.643 C 265.200 91.399,264.919 91.200,264.576 91.200 C 264.233 91.200,264.064 91.020,264.200 90.800 C 264.336 90.580,264.154 90.400,263.795 90.400 C 263.023 90.400,262.408 89.803,261.632 88.300 C 261.320 87.695,260.915 87.200,260.732 87.200 C 260.550 87.200,260.400 86.840,260.400 86.400 C 260.400 85.960,260.220 85.600,260.000 85.600 C 259.780 85.600,259.600 84.801,259.600 83.824 C 259.600 82.847,259.420 81.936,259.200 81.800 C 258.942 81.641,258.800 74.468,258.800 61.594 L 258.800 41.635 260.936 43.717 C 262.111 44.863,263.001 45.935,262.913 46.100 "
              fill="#542b84"></path>
        <path id="path1"
              d="M119.200 229.000 L 119.200 338.000 145.400 338.000 L 171.600 338.000 171.600 296.600 L 171.600 255.200 180.925 255.200 L 190.251 255.200 190.800 256.600 C 191.102 257.370,191.481 258.000,191.643 258.000 C 191.804 258.000,192.055 258.540,192.200 259.200 C 192.345 259.860,192.629 260.400,192.832 260.400 C 193.034 260.400,193.200 260.760,193.200 261.200 C 193.200 261.640,193.380 262.000,193.600 262.000 C 193.820 262.000,194.000 262.360,194.000 262.800 C 194.000 263.240,194.180 263.600,194.400 263.600 C 194.620 263.600,194.800 263.945,194.800 264.367 C 194.800 264.788,194.935 265.193,195.100 265.267 C 195.370 265.387,196.578 267.489,197.760 269.897 C 198.002 270.390,198.335 270.795,198.500 270.797 C 198.665 270.799,198.800 271.160,198.800 271.600 C 198.800 272.040,198.946 272.400,199.125 272.400 C 199.304 272.400,199.698 273.030,200.000 273.800 C 200.302 274.570,200.696 275.200,200.875 275.200 C 201.054 275.200,201.200 275.560,201.200 276.000 C 201.200 276.440,201.380 276.800,201.600 276.800 C 201.820 276.800,202.000 277.160,202.000 277.600 C 202.000 278.040,202.180 278.400,202.400 278.400 C 202.620 278.400,202.800 278.760,202.800 279.200 C 202.800 279.640,202.980 280.000,203.200 280.000 C 203.420 280.000,203.600 280.236,203.600 280.525 C 203.600 280.813,203.960 281.436,204.400 281.908 C 204.840 282.380,205.200 283.044,205.200 283.383 C 205.200 283.722,205.380 284.000,205.600 284.000 C 205.820 284.000,206.000 284.360,206.000 284.800 C 206.000 285.240,206.180 285.600,206.400 285.600 C 206.620 285.600,206.800 285.960,206.800 286.400 C 206.800 286.840,206.980 287.200,207.200 287.200 C 207.420 287.200,207.600 287.545,207.600 287.967 C 207.600 288.388,207.735 288.793,207.900 288.867 C 208.065 288.940,208.740 290.122,209.400 291.493 C 210.060 292.865,210.735 293.990,210.900 293.993 C 211.065 293.997,211.200 294.360,211.200 294.800 C 211.200 295.240,211.380 295.600,211.600 295.600 C 211.820 295.600,212.000 295.960,212.000 296.400 C 212.000 296.840,212.180 297.200,212.400 297.200 C 212.620 297.200,212.800 297.545,212.800 297.967 C 212.800 298.388,212.935 298.793,213.100 298.867 C 213.370 298.987,214.578 301.089,215.760 303.497 C 216.002 303.990,216.335 304.395,216.500 304.397 C 216.665 304.399,216.800 304.760,216.800 305.200 C 216.800 305.640,216.946 306.000,217.125 306.000 C 217.304 306.000,217.698 306.630,218.000 307.400 C 218.302 308.170,218.696 308.800,218.875 308.800 C 219.054 308.800,219.200 309.160,219.200 309.600 C 219.200 310.040,219.380 310.400,219.600 310.400 C 219.820 310.400,220.000 310.760,220.000 311.200 C 220.000 311.640,220.180 312.000,220.400 312.000 C 220.620 312.000,220.800 312.278,220.800 312.617 C 220.800 312.956,221.160 313.620,221.600 314.092 C 222.040 314.564,222.400 315.187,222.400 315.475 C 222.400 315.764,222.580 316.000,222.800 316.000 C 223.020 316.000,223.200 316.360,223.200 316.800 C 223.200 317.240,223.380 317.600,223.600 317.600 C 223.820 317.600,224.000 317.960,224.000 318.400 C 224.000 318.840,224.180 319.200,224.400 319.200 C 224.620 319.200,224.800 319.453,224.800 319.762 C 224.800 320.070,225.430 321.438,226.200 322.800 C 226.970 324.162,227.600 325.440,227.600 325.638 C 227.600 325.837,227.780 326.000,228.000 326.000 C 228.220 326.000,228.400 326.360,228.400 326.800 C 228.400 327.240,228.580 327.600,228.800 327.600 C 229.020 327.600,229.200 327.960,229.200 328.400 C 229.200 328.840,229.380 329.200,229.600 329.200 C 229.820 329.200,230.000 329.560,230.000 330.000 C 230.000 330.440,230.180 330.800,230.400 330.800 C 230.620 330.800,230.800 331.145,230.800 331.567 C 230.800 331.988,230.935 332.393,231.100 332.467 C 231.476 332.634,232.775 334.764,233.071 335.700 C 233.193 336.085,233.452 336.400,233.647 336.400 C 233.841 336.400,234.000 336.760,234.000 337.200 C 234.000 337.993,234.267 338.000,263.600 338.000 L 293.200 338.000 293.200 336.800 C 293.200 336.140,293.020 335.600,292.800 335.600 C 292.580 335.600,292.400 335.240,292.400 334.800 C 292.400 334.360,292.253 334.000,292.074 334.000 C 291.894 334.000,291.231 332.920,290.600 331.600 C 289.969 330.280,289.350 329.200,289.224 329.200 C 289.098 329.200,288.740 328.615,288.428 327.900 C 288.116 327.185,287.532 326.309,287.130 325.953 C 286.729 325.597,286.400 325.012,286.400 324.653 C 286.400 324.294,286.220 324.000,286.000 324.000 C 285.780 324.000,285.600 323.680,285.600 323.288 C 285.600 322.897,285.240 322.317,284.800 322.000 C 284.360 321.683,284.000 321.103,284.000 320.712 C 284.000 320.320,283.820 320.000,283.600 320.000 C 283.380 320.000,283.200 319.722,283.200 319.383 C 283.200 319.044,282.840 318.380,282.400 317.908 C 281.960 317.436,281.600 316.813,281.600 316.525 C 281.600 316.236,281.420 316.000,281.200 316.000 C 280.980 316.000,280.800 315.722,280.800 315.383 C 280.800 315.044,280.440 314.380,280.000 313.908 C 279.560 313.436,279.200 312.813,279.200 312.525 C 279.200 312.236,279.020 312.000,278.800 312.000 C 278.580 312.000,278.400 311.764,278.400 311.475 C 278.400 311.187,278.040 310.564,277.600 310.092 C 277.160 309.620,276.800 309.046,276.800 308.817 C 276.800 308.588,276.620 308.400,276.400 308.400 C 276.180 308.400,276.000 308.055,276.000 307.633 C 276.000 307.212,275.865 306.807,275.700 306.733 C 275.535 306.660,274.701 305.250,273.847 303.600 C 272.993 301.950,272.183 300.510,272.047 300.400 C 271.819 300.216,271.372 299.474,270.238 297.400 C 269.997 296.960,269.710 296.510,269.599 296.400 C 269.489 296.290,269.129 295.660,268.799 295.000 C 268.470 294.340,267.885 293.451,267.500 293.025 C 267.115 292.598,266.800 292.013,266.800 291.725 C 266.800 291.436,266.620 291.200,266.400 291.200 C 266.180 291.200,266.000 290.880,266.000 290.488 C 266.000 290.097,265.640 289.517,265.200 289.200 C 264.760 288.883,264.400 288.303,264.400 287.912 C 264.400 287.520,264.220 287.200,264.000 287.200 C 263.780 287.200,263.600 286.880,263.600 286.488 C 263.600 286.097,263.240 285.517,262.800 285.200 C 262.360 284.883,262.000 284.303,262.000 283.912 C 262.000 283.520,261.820 283.200,261.600 283.200 C 261.380 283.200,261.200 282.880,261.200 282.488 C 261.200 282.097,260.840 281.517,260.400 281.200 C 259.960 280.883,259.600 280.303,259.600 279.912 C 259.600 279.520,259.441 279.200,259.247 279.200 C 259.052 279.200,258.792 278.885,258.669 278.500 C 258.546 278.115,257.798 276.720,257.007 275.400 C 256.217 274.080,255.465 272.685,255.338 272.300 C 255.211 271.915,254.948 271.600,254.753 271.600 C 254.559 271.600,254.400 271.322,254.400 270.983 C 254.400 270.644,254.040 269.980,253.600 269.508 C 253.160 269.036,252.800 268.413,252.800 268.125 C 252.800 267.836,252.620 267.600,252.400 267.600 C 252.180 267.600,252.000 267.240,252.000 266.800 C 252.000 266.360,251.850 266.000,251.668 266.000 C 251.485 266.000,251.080 265.505,250.768 264.900 C 250.456 264.295,250.111 263.710,250.001 263.600 C 249.605 263.206,248.346 260.987,248.129 260.300 C 248.007 259.915,247.748 259.600,247.553 259.600 C 247.359 259.600,247.200 259.330,247.200 259.000 C 247.200 258.670,247.020 258.400,246.800 258.400 C 246.580 258.400,246.400 258.080,246.400 257.688 C 246.400 257.297,246.040 256.717,245.600 256.400 C 245.160 256.083,244.800 255.503,244.800 255.112 C 244.800 254.720,244.620 254.400,244.400 254.400 C 244.180 254.400,244.000 254.080,244.000 253.688 C 244.000 253.297,243.640 252.717,243.200 252.400 C 242.760 252.083,242.400 251.518,242.400 251.145 C 242.400 250.772,242.265 250.407,242.100 250.333 C 240.380 249.569,239.474 244.800,241.049 244.800 C 241.352 244.800,241.600 244.620,241.600 244.400 C 241.600 244.180,241.960 244.000,242.400 244.000 C 242.840 244.000,243.200 243.820,243.200 243.600 C 243.200 243.380,243.560 243.200,244.000 243.200 C 244.440 243.200,244.800 243.020,244.800 242.800 C 244.800 242.580,245.160 242.400,245.600 242.400 C 246.040 242.400,246.400 242.220,246.400 242.000 C 246.400 241.780,246.674 241.600,247.008 241.600 C 247.342 241.600,248.287 241.191,249.108 240.691 C 249.929 240.191,251.095 239.531,251.700 239.223 C 252.305 238.916,252.800 238.515,252.800 238.332 C 252.800 238.150,253.036 238.000,253.325 238.000 C 253.613 238.000,254.236 237.640,254.708 237.200 C 255.180 236.760,255.690 236.400,255.840 236.400 C 255.990 236.400,256.629 235.860,257.260 235.200 C 257.891 234.540,258.587 234.000,258.807 234.000 C 259.312 234.000,269.200 224.140,269.200 223.637 C 269.200 223.433,269.345 223.207,269.523 223.133 C 269.991 222.941,272.400 219.335,272.400 218.828 C 272.400 218.593,272.548 218.400,272.730 218.400 C 273.201 218.400,275.200 213.934,275.200 212.882 C 275.200 212.397,275.380 212.000,275.600 212.000 C 275.820 212.000,276.000 211.640,276.000 211.200 C 276.000 210.760,276.180 210.400,276.400 210.400 C 276.620 210.400,276.800 209.860,276.800 209.200 C 276.800 208.540,276.980 208.000,277.200 208.000 C 277.420 208.000,277.600 207.370,277.600 206.600 C 277.600 205.830,277.780 205.200,278.000 205.200 C 278.220 205.200,278.400 204.480,278.400 203.600 C 278.400 202.720,278.580 202.000,278.800 202.000 C 279.022 202.000,279.200 200.933,279.200 199.600 C 279.200 198.267,279.378 197.200,279.600 197.200 C 279.856 197.200,280.000 193.467,280.000 186.800 C 280.000 180.133,279.856 176.400,279.600 176.400 C 279.371 176.400,279.200 175.200,279.200 173.600 C 279.200 172.000,279.029 170.800,278.800 170.800 C 278.580 170.800,278.400 170.001,278.400 169.024 C 278.400 168.047,278.220 167.136,278.000 167.000 C 277.780 166.864,277.600 166.223,277.600 165.576 C 277.600 164.929,277.420 164.400,277.200 164.400 C 276.980 164.400,276.800 163.860,276.800 163.200 C 276.800 162.540,276.620 162.000,276.400 162.000 C 276.180 162.000,276.000 161.561,276.000 161.024 C 276.000 160.487,275.840 159.948,275.644 159.827 C 275.449 159.706,275.168 159.111,275.020 158.504 C 274.611 156.824,272.327 152.000,271.941 152.000 C 271.753 152.000,271.600 151.680,271.600 151.288 C 271.600 150.897,271.240 150.317,270.800 150.000 C 270.360 149.683,270.000 149.169,270.000 148.859 C 270.000 148.548,269.685 148.003,269.300 147.647 C 268.915 147.291,267.978 146.189,267.217 145.200 C 266.456 144.210,265.490 143.150,265.070 142.845 C 264.650 142.539,263.342 141.324,262.162 140.145 C 260.982 138.965,259.816 138.000,259.569 138.000 C 259.323 138.000,258.617 137.460,258.000 136.800 C 257.383 136.140,256.681 135.600,256.440 135.600 C 256.198 135.600,256.000 135.420,256.000 135.200 C 256.000 134.980,255.730 134.800,255.400 134.800 C 255.070 134.800,254.800 134.620,254.800 134.400 C 254.800 134.180,254.530 134.000,254.200 134.000 C 253.870 134.000,253.600 133.820,253.600 133.600 C 253.600 133.380,253.240 133.200,252.800 133.200 C 252.360 133.200,251.999 133.065,251.997 132.900 C 251.995 132.735,251.590 132.402,251.097 132.160 C 250.604 131.917,249.390 131.310,248.400 130.810 C 247.410 130.309,246.287 129.742,245.905 129.550 C 245.523 129.357,244.938 129.200,244.605 129.200 C 244.272 129.200,244.000 129.020,244.000 128.800 C 244.000 128.580,243.651 128.400,243.224 128.400 C 242.797 128.400,242.336 128.220,242.200 128.000 C 242.064 127.780,241.513 127.600,240.976 127.600 C 240.439 127.600,240.000 127.420,240.000 127.200 C 240.000 126.980,239.580 126.800,239.067 126.800 C 238.553 126.800,238.008 126.674,237.854 126.521 C 237.440 126.107,232.370 124.823,231.100 124.811 C 230.495 124.805,230.000 124.620,230.000 124.400 C 230.000 124.180,229.100 124.000,228.000 124.000 C 226.900 124.000,226.000 123.820,226.000 123.600 C 226.000 123.380,225.201 123.200,224.224 123.200 C 223.247 123.200,222.336 123.020,222.200 122.800 C 222.064 122.580,220.973 122.400,219.776 122.400 C 218.579 122.400,217.600 122.220,217.600 122.000 C 217.600 121.765,216.208 121.600,214.224 121.600 C 212.367 121.600,210.736 121.420,210.600 121.200 C 210.454 120.963,208.004 120.800,204.600 120.800 C 201.196 120.800,198.746 120.637,198.600 120.400 C 198.438 120.138,184.729 120.000,158.776 120.000 L 119.200 120.000 119.200 229.000 M197.000 158.048 C 199.200 158.273,201.945 158.551,203.100 158.665 C 204.255 158.780,205.200 159.037,205.200 159.237 C 205.200 159.437,205.740 159.600,206.400 159.600 C 207.060 159.600,207.600 159.780,207.600 160.000 C 207.600 160.220,208.039 160.400,208.576 160.400 C 209.113 160.400,209.664 160.580,209.800 160.800 C 209.936 161.020,210.397 161.200,210.824 161.200 C 211.251 161.200,211.600 161.346,211.600 161.525 C 211.600 161.704,212.230 162.098,213.000 162.400 C 213.770 162.702,214.400 163.096,214.400 163.275 C 214.400 163.454,214.673 163.600,215.006 163.600 C 215.797 163.600,221.600 169.403,221.600 170.194 C 221.600 170.527,221.780 170.800,222.000 170.800 C 222.220 170.800,222.400 171.070,222.400 171.400 C 222.400 171.730,222.580 172.000,222.800 172.000 C 223.020 172.000,223.200 172.360,223.200 172.800 C 223.200 173.240,223.380 173.600,223.600 173.600 C 223.820 173.600,224.000 173.960,224.000 174.400 C 224.000 174.840,224.147 175.200,224.327 175.200 C 224.848 175.200,225.750 182.626,225.761 187.000 C 225.772 191.461,224.850 199.600,224.334 199.600 C 224.150 199.600,224.000 200.140,224.000 200.800 C 224.000 201.460,223.820 202.000,223.600 202.000 C 223.380 202.000,223.200 202.360,223.200 202.800 C 223.200 203.240,223.020 203.600,222.800 203.600 C 222.580 203.600,222.400 203.960,222.400 204.400 C 222.400 204.840,222.220 205.200,222.000 205.200 C 221.780 205.200,221.600 205.467,221.600 205.793 C 221.600 206.119,221.105 206.944,220.500 207.627 C 218.283 210.127,216.764 211.600,216.405 211.600 C 216.202 211.600,215.586 212.050,215.036 212.600 C 214.486 213.150,213.773 213.600,213.452 213.600 C 213.130 213.600,212.807 213.735,212.733 213.900 C 212.512 214.399,209.178 216.000,208.362 216.000 C 207.943 216.000,207.600 216.160,207.600 216.356 C 207.600 216.714,206.143 217.048,202.800 217.457 C 201.810 217.578,200.829 217.840,200.620 218.039 C 200.408 218.240,193.895 218.400,185.920 218.400 L 171.600 218.400 171.600 188.000 L 171.600 157.600 182.300 157.619 C 188.185 157.630,194.800 157.823,197.000 158.048 "
              fill="#0484b4"></path>
    </g>
</svg>